<svg width="36" height="37" viewBox="0 0 36 37" fill="none" xmlns="http://www.w3.org/2000/svg">
<path d="M3.588 14.852V32.792H25.116V14.852H3.588ZM7.176 11.264V4.088C7.176 3.1364 7.55402 2.22378 8.2269 1.5509C8.89978 0.87802 9.8124 0.5 10.764 0.5L32.292 0.5C33.2436 0.5 34.1562 0.87802 34.8291 1.5509C35.502 2.22378 35.88 3.1364 35.88 4.088V22.028C35.88 22.9796 35.502 23.8922 34.8291 24.5651C34.1562 25.238 33.2436 25.616 32.292 25.616H28.704V32.792C28.704 33.7436 28.326 34.6562 27.6531 35.3291C26.9802 36.002 26.0676 36.38 25.116 36.38H3.588C2.6364 36.38 1.72378 36.002 1.0509 35.3291C0.37802 34.6562 0 33.7436 0 32.792V14.852C0 13.9004 0.37802 12.9878 1.0509 12.3149C1.72378 11.642 2.6364 11.264 3.588 11.264H7.176ZM10.764 11.264H25.116C26.0676 11.264 26.9802 11.642 27.6531 12.3149C28.326 12.9878 28.704 13.9004 28.704 14.852V22.028H32.292V4.088H10.764V11.264ZM10.764 27.41C9.33661 27.41 7.96767 26.843 6.95835 25.8336C5.94903 24.8243 5.382 23.4554 5.382 22.028C5.382 20.6006 5.94903 19.2317 6.95835 18.2224C7.96767 17.213 9.33661 16.646 10.764 16.646C12.1914 16.646 13.5603 17.213 14.5696 18.2224C15.579 19.2317 16.146 20.6006 16.146 22.028C16.146 23.4554 15.579 24.8243 14.5696 25.8336C13.5603 26.843 12.1914 27.41 10.764 27.41ZM10.764 23.822C11.2398 23.822 11.6961 23.633 12.0325 23.2965C12.369 22.9601 12.558 22.5038 12.558 22.028C12.558 21.5522 12.369 21.0959 12.0325 20.7595C11.6961 20.423 11.2398 20.234 10.764 20.234C10.2882 20.234 9.83189 20.423 9.49545 20.7595C9.15901 21.0959 8.97 21.5522 8.97 22.028C8.97 22.5038 9.15901 22.9601 9.49545 23.2965C9.83189 23.633 10.2882 23.822 10.764 23.822ZM12.558 11.264C12.558 9.83661 13.125 8.46767 14.1344 7.45835C15.1437 6.44903 16.5126 5.882 17.94 5.882C19.3674 5.882 20.7363 6.44903 21.7456 7.45835C22.755 8.46767 23.322 9.83661 23.322 11.264H19.734C19.734 10.7882 19.545 10.3319 19.2085 9.99545C18.8721 9.65901 18.4158 9.47 17.94 9.47C17.4642 9.47 17.0079 9.65901 16.6715 9.99545C16.335 10.3319 16.146 10.7882 16.146 11.264H12.558ZM15.902 35.5153L12.802 33.7087L17.6906 25.3254C18.115 24.5974 18.7044 23.9792 19.4113 23.5206C20.1182 23.0619 20.923 22.7757 21.7607 22.685C22.5985 22.5942 23.4458 22.7015 24.2346 22.998C25.0233 23.2946 25.7314 23.7722 26.3018 24.3925L28.2537 26.5166L25.6111 28.9457L23.6611 26.8216C23.4708 26.6149 23.2347 26.4557 22.9718 26.357C22.7088 26.2582 22.4263 26.2226 22.1471 26.2529C21.8678 26.2833 21.5996 26.3788 21.364 26.5318C21.1284 26.6848 20.932 26.891 20.7907 27.1337L15.902 35.5153ZM27.5845 12.2471C28.5919 11.8583 29.693 11.7822 30.7443 12.0286C31.7956 12.275 32.7482 12.8326 33.4778 13.6285L35.4297 15.7526L32.7871 18.1817L30.8371 16.0576C30.5723 15.7694 30.2205 15.5758 29.8354 15.5061C29.4503 15.4365 29.053 15.4947 28.704 15.6719V14.852C28.704 13.8276 28.2734 12.9001 27.5845 12.2471Z" fill="white"/>
</svg>
